<?xml version="1.0" standalone="no"?><!DOCTYPE svg PUBLIC "-//W3C//DTD SVG 1.1//EN" "http://www.w3.org/Graphics/SVG/1.1/DTD/svg11.dtd"><svg class="icon" width="64px" height="64.00px" viewBox="0 0 1024 1024" version="1.1" xmlns="http://www.w3.org/2000/svg"><path d="M897.7 1024H126.3C56.9 1024 0 967.2 0 897.7V126.3C0 56.9 56.7 0 126.3 0h771.5c69.4 0 126.3 56.8 126.3 126.3v771.5c-0.1 69.4-56.9 126.2-126.4 126.2z" fill="#231815" /><path d="M328.3 478.8c0 39.4 31.9 71.3 71.3 71.3s71.3-31.9 71.3-71.3H328.3zM623.7 550.1c39.4 0 71.3-31.9 71.3-71.3H552.5c0 39.3 31.9 71.3 71.2 71.3zM546 604.1c-4.6-13.3-18.9-28.8-28.5-38.2-5-4.9-13.6-5-18.8-0.2-9.8 9.2-24.1 24.6-28.4 38.5-8.6 4.8-14.5 14-14.5 24.6 0 15.6 12.7 28.3 28.3 28.3 8.6 0 16.2-3.9 21.4-10 0.8-0.9 1.9-1.5 2.8-1.5 1 0 1.9 0.6 2.8 1.5 5.2 6 12.8 10 21.4 10 15.6 0 28.3-12.7 28.3-28.3 0-10.7-6-19.9-14.8-24.7z" fill="#FFE255" /><path d="M851.7 490.5c0-187.5-152.6-340.1-340.1-340.1-187.5 0-340.1 152.5-340.1 340.1 0 102.2 46.7 199.6 125.7 263.9-1.2 5.5-1.8 11-1.9 16.6-0.4 24.2 8.8 47 25.7 64.2 17 17.2 39.6 26.7 63.8 26.7 24.2 0 46.8-9.5 63.5-26.7 16.9 17.2 39.6 26.7 63.7 26.7 20.4 0 40.4-7.1 56.2-19.9 4.1-3.3 9.8-3.3 13.9 0 15.8 12.8 35.8 19.9 56.2 19.9 27.1 0 52.4-12.1 69.5-33.1 16.9-20.8 23.5-47.9 18.2-74.5 79-64.2 125.7-161.7 125.7-263.8z m-165 237.6l-14.3 10.6 6.9 16.4c1.3 3 2.1 5.5 2.6 7.7 2.9 13.8-0.3 27.3-8.9 37.9-8.5 10.5-21.1 16.5-34.6 16.5-10.3 0-19.9-3.4-27.9-9.9-10.2-8.3-22.7-12.4-35.3-12.4-12.5 0-25.1 4.1-35.3 12.4-17.2 14-43.9 12.5-59.5-3.4-8.5-8.7-19.9-13.4-32-13.4-12.1 0-23.5 4.8-32 13.4-8.4 8.6-19.7 13.3-31.6 13.3-12 0-23.3-4.7-31.7-13.3-8.4-8.6-13-19.9-12.8-31.9 0.1-5.5 1.3-11 3.7-16.4l7.2-16.5-14.5-10.7c-75.3-55.5-120.2-144.3-120.2-237.7 0-30 4.5-59 12.9-86.3h60.8c13.9 0 26.8-6.3 35.4-17.1l34.4-43.6c7.7-9.8 6.1-24-3.7-31.7-9.8-7.7-24-6.1-31.7 3.7-8.3 10.5-16.2 21.6-26.4 30.5-13.4 11.7-30.4 15.3-47.9 13.2-4.8-0.6 0.2-6.2 1.4-8.3 1.5-2.8 3-5.6 4.6-8.3 3.2-5.5 6.5-10.8 10-16.1 7-10.5 14.7-20.5 23-30 16.6-19 35.5-35.8 56.3-50 21-14.3 43.8-25.9 67.8-34.4 24.6-8.7 50.4-14.1 76.4-16 7.2-0.5 14.5-0.8 21.7-0.8 38.7 0 75.7 7.6 109.6 21.2-0.5 1.2-0.9 2.4-1.2 3.7l-13.3 53.9c-3.3 13.5-0.4 27.5 8.1 38.5l39.9 51.4c7.6 9.8 21.8 11.6 31.6 4s11.6-21.8 4-31.6c-5-6.5-9.8-13.2-15.1-19.4-5.8-7-11.4-14.2-15.3-22.5-3-6.4-5.1-13.4-5.3-20.5-0.2-7.4 2.1-14.3 3.9-21.4 1.3-5.2 2.6-10.5 3.9-15.7 86.4 51.5 144.4 145.9 144.4 253.5 0 93.2-44.9 182-120 237.5z" fill="#FFE255" /></svg>