<?xml version="1.0" standalone="no"?><!DOCTYPE svg PUBLIC "-//W3C//DTD SVG 1.1//EN" "http://www.w3.org/Graphics/SVG/1.1/DTD/svg11.dtd"><svg class="icon" width="200px" height="200.00px" viewBox="0 0 1024 1024" version="1.1" xmlns="http://www.w3.org/2000/svg"><path d="M737.101 807.531 990.297 78.301 710.078 797.087Z" fill="#d4237a" /><path d="M776.657 822.816 990.297 78.301 750.664 812.778Z" fill="#d4237a" /><path d="M695.1 791.3 990.297 78.301 669.612 781.455Z" fill="#d4237a" /><path d="M824.234 841.198 852.167 851.99 990.297 78.301Z" fill="#d4237a" /><path d="M812.951 836.835 990.297 78.301 788.982 827.576Z" fill="#d4237a" /><path d="M459.344 700.209 990.297 78.301 424.819 686.866Z" fill="#d4237a" /><path d="M510.003 719.79 990.297 78.301 483.502 709.549Z" fill="#d4237a" /><path d="M653.145 775.091 990.297 78.301 623.922 763.796Z" fill="#d4237a" /><path d="M605.791 756.791 990.297 78.301 579.756 746.738Z" fill="#d4237a" /><path d="M559.779 739.016 990.297 78.301 532.146 728.339Z" fill="#d4237a" /><path d="M36.617 504.328 390.035 655.77 946.557 63.347Z" fill="#d4237a" /><path d="M425.33 957.53 623.922 791.3 425.33 713.709Z" fill="#d4237a" /></svg>